<svg width="546" height="530" viewBox="0 0 546 530" fill="none" xmlns="http://www.w3.org/2000/svg">
<g id="Shape-2">
<path id="Polygon" opacity="0.05" fill-rule="evenodd" clip-rule="evenodd" d="M99.8251 96.5861C105.509 90.9021 113.794 88.6822 121.558 90.7627L205.13 113.156C212.894 115.236 218.959 121.301 221.04 129.065L243.432 212.637C245.513 220.401 243.293 228.686 237.609 234.37L176.431 295.548C170.747 301.232 162.462 303.452 154.697 301.372L71.1261 278.979C63.3615 276.898 57.2967 270.834 55.2162 263.069L32.8234 179.498C30.7428 171.733 32.9627 163.449 38.6468 157.764L99.8251 96.5861Z" fill="url(#paint0_linear)"/>
<path id="Polygon_2" opacity="0.05" fill-rule="evenodd" clip-rule="evenodd" d="M271.769 260.157C277.453 254.473 285.738 252.253 293.503 254.334L377.074 276.727C384.838 278.807 390.903 284.872 392.984 292.636L415.377 376.208C417.457 383.972 415.237 392.257 409.553 397.941L348.375 459.119C342.691 464.803 334.406 467.023 326.641 464.943L243.07 442.55C235.306 440.469 229.241 434.405 227.16 426.64L204.768 343.069C202.687 335.304 204.907 327.02 210.591 321.336L271.769 260.157Z" fill="url(#paint1_linear)"/>
<path id="Polygon_3" opacity="0.05" fill-rule="evenodd" clip-rule="evenodd" d="M317.158 38.352C322.843 32.668 331.127 30.4481 338.892 32.5286L422.463 54.9214C430.228 57.0019 436.292 63.0667 438.373 70.8313L460.766 154.402C462.846 162.167 460.626 170.452 454.942 176.136L393.764 237.314C388.08 242.998 379.795 245.218 372.031 243.138L288.459 220.745C280.695 218.664 274.63 212.599 272.55 204.835L250.157 121.264C248.076 113.499 250.296 105.214 255.98 99.5304L317.158 38.352Z" fill="url(#paint2_linear)"/>
</g>
<defs>
<linearGradient id="paint0_linear" x1="217.755" y1="58.5731" x2="1.00104" y2="116.652" gradientUnits="userSpaceOnUse">
<stop stop-color="white"/>
<stop offset="1" stop-color="white" stop-opacity="0.01"/>
</linearGradient>
<linearGradient id="paint1_linear" x1="389.699" y1="222.144" x2="172.945" y2="280.223" gradientUnits="userSpaceOnUse">
<stop stop-color="white"/>
<stop offset="1" stop-color="white" stop-opacity="0.01"/>
</linearGradient>
<linearGradient id="paint2_linear" x1="435.088" y1="0.338966" x2="218.334" y2="58.418" gradientUnits="userSpaceOnUse">
<stop stop-color="white"/>
<stop offset="1" stop-color="white" stop-opacity="0.01"/>
</linearGradient>
</defs>
</svg>
